# xmcd CD database file
#
# Track frame offsets:
#	150
#	14827
#	27867
#	40875
#	55496
#	69472
#	85232
#	103855
#	118493
#	138084
#	149622
#
# Disc length: 2195 seconds
#
# Revision: 0
# Processed by: cddbd v1.5.1PL2 Copyright (c) Steve Scherf et al.
# Submitted via: CDex 1.40Release
#
DISCID=a608910b
DTITLE=Mandy Strobel - Sun-Records
DYEAR=2005
DGENRE=Country
TTITLE0=Another man in black
TTITLE1=Comin' Around
TTITLE2=Get on your knees and pray
TTITLE3=Goin' by the Boock
TTITLE4=I'm meant for Tennessee
TTITLE5=Is Heaven good enough for you
TTITLE6=Just the Wife I Love
TTITLE7=Man in black
TTITLE8=Soldier's wishes
TTITLE9=The Bow and the Arrow
TTITLE10=When will the peace in the valley ever come
EXTD=YEAR: 2005 ID3G: 2
EXTT0=
EXTT1=
EXTT2=
EXTT3=
EXTT4=
EXTT5=
EXTT6=
EXTT7=
EXTT8=
EXTT9=
EXTT10=
PLAYORDER=
